<?xml version="1.0" standalone="no"?>
<!DOCTYPE svg PUBLIC "-//W3C//DTD SVG 20010904//EN"
 "http://www.w3.org/TR/2001/REC-SVG-20010904/DTD/svg10.dtd">
<svg version="1.0" xmlns="http://www.w3.org/2000/svg"
 width="260.000000pt" height="260.000000pt" viewBox="0 0 260.000000 260.000000"
 preserveAspectRatio="xMidYMid meet">
<metadata>
Created by potrace 1.14, written by Peter Selinger 2001-2017
</metadata>
<g transform="translate(0.000000,260.000000) scale(0.100000,-0.100000)"
fill="#000000" stroke="none">
<path d="M328 1779 c-19 -12 0 -40 24 -36 13 2 35 1 49 -2 l25 -6 -27 -85
c-171 -532 -278 -859 -287 -876 -8 -16 -19 -20 -51 -18 -44 2 -70 -16 -49 -34
7 -5 67 -10 136 -10 98 0 125 3 129 15 8 22 -3 27 -62 27 -31 1 -55 5 -54 11
1 5 20 64 42 130 l42 120 213 0 c117 0 217 -2 222 -5 16 -10 89 -250 76 -251
-6 -1 -27 -2 -46 -2 -34 -1 -56 -19 -46 -36 3 -4 95 -8 205 -9 151 0 204 3
218 13 23 17 12 28 -30 31 -44 2 -44 2 -50 22 -37 127 -309 997 -313 1001 -8
8 -353 8 -366 0z m227 -334 c42 -137 85 -277 96 -309 10 -33 19 -63 19 -68 0
-4 -92 -8 -205 -8 -113 0 -205 3 -205 6 0 4 20 68 45 143 131 399 155 476 155
490 0 41 25 -25 95 -254z"/>
<path d="M1173 1773 c-7 -19 7 -34 30 -32 12 0 33 1 47 0 l26 -1 0 -490 c0
-435 -2 -490 -16 -491 -8 -1 -35 -2 -60 -3 -38 -1 -45 -4 -45 -21 0 -19 7 -20
135 -22 151 -3 180 1 180 22 0 17 -2 17 -85 19 l-60 1 -1 450 -1 450 43 -90
c61 -129 275 -587 314 -670 71 -155 96 -200 110 -200 9 0 28 36 53 100 21 55
55 145 77 200 21 55 79 210 130 345 50 135 98 259 106 275 12 26 13 -28 11
-415 l-2 -445 -32 2 c-37 2 -66 -23 -43 -37 23 -14 408 -9 421 6 14 17 -7 28
-56 29 l-40 0 -3 493 c-2 542 -7 497 56 492 22 -1 41 24 28 38 -12 11 -316 9
-326 -3 -7 -8 -230 -588 -276 -715 l-12 -35 -35 75 c-32 70 -131 282 -234 500
-25 52 -54 114 -64 138 -10 23 -22 43 -26 43 -4 1 -84 2 -177 3 -123 1 -170
-2 -173 -11z"/>
</g>
</svg>
